<?xml version="1.0" standalone="no"?>
<!DOCTYPE svg PUBLIC "-//W3C//DTD SVG 20010904//EN"
 "http://www.w3.org/TR/2001/REC-SVG-20010904/DTD/svg10.dtd">
<svg version="1.0" xmlns="http://www.w3.org/2000/svg"
 width="436.000000pt" height="130.000000pt" viewBox="0 0 436.000000 130.000000"
 preserveAspectRatio="xMidYMid meet">
<metadata>
Created by potrace 1.16, written by Peter Selinger 2001-2019
</metadata>
<g transform="translate(0.000000,130.000000) scale(0.100000,-0.100000)"
fill="#291508" stroke="none">
<path d="M2280 1115 c-18 -22 -5 -45 28 -45 37 0 54 17 41 42 -12 22 -52 24
-69 3z"/>
<path d="M872 1098 c-7 -7 -12 -16 -12 -21 0 -4 -9 -29 -21 -54 -24 -52 -54
-191 -74 -336 -12 -95 -30 -137 -59 -137 -6 0 -22 -9 -36 -20 -29 -22 -73 -26
-88 -7 -20 24 -23 90 -8 147 15 53 14 56 -6 73 -38 32 -57 16 -64 -54 -5 -42
-16 -69 -52 -122 -52 -76 -82 -97 -141 -97 -30 0 -43 5 -51 19 -13 25 -13 158
0 166 6 4 24 36 42 73 28 61 31 77 32 168 1 87 -2 105 -18 123 -23 26 -57 27
-79 4 -25 -30 -35 -90 -40 -251 -6 -167 -2 -154 -76 -234 -19 -21 -39 -38 -44
-38 -4 0 -24 -12 -43 -26 -34 -26 -46 -66 -24 -79 11 -7 80 46 136 104 36 37
54 34 54 -10 0 -63 71 -86 175 -58 42 11 95 54 95 76 0 23 46 15 58 -11 15
-33 94 -51 134 -30 15 8 34 14 42 14 13 0 13 -4 0 -37 -17 -40 -26 -83 -51
-250 -20 -138 -13 -186 29 -191 34 -4 104 34 121 64 7 12 34 61 61 109 66 118
100 216 98 286 -1 51 1 57 24 68 39 18 64 13 74 -13 15 -41 128 -62 193 -37
45 17 139 94 206 167 66 73 75 94 36 94 -17 0 -29 -9 -40 -29 -17 -34 -141
-148 -188 -173 -18 -9 -52 -17 -77 -17 -74 -1 -128 39 -78 58 25 10 65 50 93
94 30 47 17 137 -23 152 -18 7 -75 -21 -105 -51 -26 -26 -35 -50 -45 -129 -6
-42 -11 -52 -37 -64 -29 -14 -40 -14 -120 -7 -22 2 -49 4 -60 5 -14 1 -16 4
-7 9 28 19 103 140 123 201 12 36 28 78 35 92 7 14 14 65 15 113 3 77 1 90
-16 102 -23 17 -77 18 -93 2z m64 -63 c15 -39 -62 -295 -100 -334 -32 -31 -30
-9 8 132 9 32 16 69 16 83 0 13 4 32 10 42 5 9 16 34 24 55 16 38 33 48 42 22z
m-646 -145 c0 -71 -20 -140 -40 -140 -7 0 -9 15 -6 43 3 23 8 66 11 96 7 59
11 71 26 71 5 0 9 -32 9 -70z m886 -145 c-12 -48 -24 -70 -55 -99 -26 -25 -31
-27 -37 -13 -7 19 12 83 35 114 9 12 27 23 40 23 20 0 22 -4 17 -25z m-265
-262 c14 -38 4 -91 -33 -182 -57 -137 -137 -251 -175 -251 -14 0 -15 13 -9 95
4 53 14 119 22 148 8 28 22 87 31 129 l17 77 46 4 c25 2 55 4 68 5 16 2 25 -6
33 -25z"/>
<path d="M543 964 c-22 -10 -15 -54 10 -63 29 -11 49 5 45 38 -3 26 -27 36
-55 25z"/>
<path d="M2647 903 c-4 -3 -7 -18 -7 -32 0 -28 -38 -107 -76 -158 -22 -29 -47
-44 -146 -87 -20 -9 -51 -28 -67 -42 -32 -26 -57 -24 -46 5 4 9 8 48 10 86 3
39 10 96 16 128 10 51 10 60 -4 74 -13 14 -21 15 -42 5 -21 -10 -26 -18 -23
-41 4 -39 -71 -162 -135 -223 -46 -43 -78 -58 -132 -63 -14 -1 -20 -9 -20 -26
0 -21 4 -24 35 -23 67 2 193 102 225 177 27 64 40 42 41 -68 1 -99 0 -99 -31
-130 -18 -16 -42 -48 -55 -70 -13 -22 -31 -49 -40 -60 -15 -17 -18 -43 -18
-153 -1 -129 0 -135 23 -158 49 -49 84 -25 108 76 17 70 38 236 39 312 0 40 6
51 37 81 20 20 66 47 103 62 37 15 72 33 79 41 17 20 43 17 65 -7 41 -46 95
-71 163 -76 132 -9 136 -8 189 36 26 23 53 41 59 41 6 0 18 -11 27 -24 30 -47
161 -66 240 -36 15 5 44 10 63 10 31 0 45 8 92 58 47 48 89 104 146 195 6 9
27 17 50 19 l40 3 3 -71 c2 -44 -3 -88 -12 -114 -11 -33 -12 -47 -3 -61 24
-39 59 -14 77 53 7 26 23 62 37 80 13 18 33 50 44 71 38 73 67 34 52 -71 -15
-96 -7 -126 43 -167 40 -33 47 -35 106 -34 43 2 78 10 110 26 26 13 55 23 64
23 9 0 39 19 65 43 27 23 62 53 78 67 16 14 32 35 36 48 6 19 3 22 -22 22 -21
0 -43 -16 -92 -65 -79 -80 -147 -115 -226 -115 -50 0 -60 4 -87 30 -26 27 -29
35 -23 69 17 100 14 149 -9 183 -31 46 -69 42 -113 -9 -18 -21 -33 -43 -33
-49 0 -6 -10 -19 -21 -30 l-22 -19 6 47 c5 37 3 51 -14 72 -17 22 -28 26 -72
26 -60 -1 -94 -23 -122 -80 -10 -19 -21 -37 -25 -40 -4 -3 -28 -36 -53 -75
-45 -70 -86 -116 -88 -99 -1 5 -1 43 1 85 3 124 -48 199 -138 199 -33 0 -174
-70 -169 -85 2 -5 -7 -27 -20 -47 -12 -21 -23 -40 -23 -44 0 -12 -92 -109
-115 -121 -22 -12 -22 -12 -27 80 -6 107 -25 154 -87 210 -30 27 -50 37 -74
37 -19 0 -37 -3 -40 -7z m107 -115 c57 -86 61 -175 8 -202 -30 -15 -39 -13
-99 26 -60 39 -62 57 -14 129 23 34 41 70 41 80 0 35 29 19 64 -33z m482 25
c39 -39 56 -130 35 -186 -14 -35 -60 -51 -126 -42 -62 7 -89 28 -99 77 -4 22
-1 37 10 49 9 10 13 22 10 27 -12 20 92 91 136 92 9 0 24 -8 34 -17z m-976
-404 c0 -57 -44 -326 -56 -338 -23 -25 -36 32 -32 134 3 74 9 99 31 140 15 27
27 58 27 67 0 10 7 18 15 18 8 0 15 -9 15 -21z"/>
<path d="M1670 576 c0 -43 9 -55 37 -47 58 16 57 71 -2 71 -30 0 -35 -3 -35
-24z"/>
</g>
</svg>
